<svg width="1008.9280395507812" height="282.2073974609375" xmlns="http://www.w3.org/2000/svg" preserveAspectRatio="xMidYMid meet">

 <g>
  <title>background</title>
  <rect fill="none" id="canvas_background" height="402" width="582" y="-1" x="-1"/>
 </g>
 <g>
  <title>Layer 1</title>
  <rect fill=" none" height="409.877014" width="409.877014" y="0" x="0" id="svgEditorBackground"/>
  <g id="svg_1" transform="matrix(1,0,0,1,-234.05,54.4551) ">
   <g id="svg_2" transform="matrix(1,0,0,1,-2.92443,20.471) ">
    <circle id="svg_3" fill="#333E48" r="50.021" cy="99.795886" cx="408.074328"/>
    <circle id="svg_4" fill="#D68512" transform="matrix(1,0,0,1,1.46221,38.0176) " r="37.304001" cy="99.795886" cx="408.074328"/>
   </g>
   <g id="svg_5" transform="matrix(1,0,0,1,-1.46221,58.4886) ">
    <circle id="svg_6" fill="#333E48" r="50.021" cy="-16.199114" cx="408.074328"/>
    <circle id="svg_7" fill="#D68512" r="37.304001" cy="-16.199114" cx="408.074328"/>
   </g>
   <g id="svg_8" transform="matrix(1,0,0,1,-1.46221,58.4886) ">
    <path id="svg_9" fill="#333E48" d="m379.264328,76.302886c-7.353,-7.353 -17.51,-11.9 -28.73,-11.9c-22.44,0 -40.631,18.19 -40.631,40.63l0,0.003c-34.924,0 -63.236,-28.312 -63.236,-63.238c-0.001,-34.923 28.313,-63.234 63.235,-63.234c0,22.44 18.191,40.631 40.631,40.631c11.22,0 21.378,-4.549 28.73,-11.901l0,69.009l0.001,0z"/>
    <path id="svg_10" fill="#D68512" d="m350.533328,19.194886c-17.728,0 -32.794,-11.357 -38.344,-27.189l-2.288,0c-27.499,0 -49.792,22.292 -49.792,49.792c0,27.499 22.293,49.792 49.792,49.792l2.288,0c5.55,-15.832 20.617,-27.188 38.344,-27.188c11.22,0 21.378,4.548 28.73,11.9l0,-69.009c-7.352,7.354 -17.51,11.902 -28.73,11.902z"/>
    <path id="svg_11" fill="#333E48" d="m350.533328,19.194886c-9.791,0 -18.768,-3.47 -25.78,-9.24c4.74,9.604 7.414,20.409 7.414,31.843s-2.675,22.24 -7.415,31.844c7.013,-5.77 15.99,-9.24 25.781,-9.24c11.22,0 21.378,4.548 28.73,11.9l0,-69.009c-7.352,7.354 -17.51,11.902 -28.73,11.902z"/>
   </g>
   <g id="svg_12" transform="matrix(1,0,0,1,-1.46221,58.4886) ">
    <path id="svg_13" fill="#333E48" d="m481.858328,34.938886l0,-90.278c0,-13.593 11.059,-24.652 24.652,-24.652c56.758,0 102.935,46.177 102.935,102.935l0,11.995l-127.587,0l0,0z"/>
    <path id="svg_14" fill="#D68512" d="m597.450328,22.943886c0,-50.225 -40.715,-90.94 -90.939,-90.94c-6.991,0 -12.656,5.666 -12.656,12.657l0,78.283l103.595,0z"/>
   </g>
   <g id="svg_15" transform="matrix(1,0,0,1,1.46221,38.0176) ">
    <path id="svg_16" fill="#333E48" d="m481.858328,41.603886l0,90.278c0,13.593 11.059,24.652 24.652,24.652c56.758,0 102.935,-46.177 102.935,-102.935l0,-11.995l-127.587,0l0,0z"/>
    <path id="svg_17" fill="#D68512" d="m594.525898,74.069886c0,50.225 -40.715,90.939 -90.939,90.939c-6.991,0 -12.656,-5.666 -12.656,-12.657l0,-78.283l103.595,0.001l0,0z"/>
   </g>
   <path id="svg_18" fill="#FF9E16" d="m571.266118,16.470486l-152.381,0c-46.289,0 -83.818,37.526 -83.818,83.817c0,46.292 37.527,83.819 83.818,83.819l152.381,0c46.29,0 83.818,-37.527 83.816,-83.819c0.002,-46.291 -37.526,-83.817 -83.816,-83.817z"/>
   <rect id="svg_19" fill="#333E48" transform="matrix(1,0,0,1,-1.46221,58.4886) " height="167.758" width="11.996" y="-42.018114" x="481.858328"/>
   <path id="svg_20" fill="#E8E8E8" d="m356.622118,44.073486c-13.362,14.849 -21.555,34.665 -21.555,56.215c0,21.548 8.139,41.192 21.501,56.042l0.054,-112.257z"/>
   <rect id="svg_21" fill="#E8E8E8" transform="matrix(1,0,0,1,-1.46221,58.4886) " height="167.636" width="31.261" y="-42.018114" x="450.598328"/>
   <path id="svg_22" fill="#333E48" d="m356.622118,44.073486l-0.054,112.257c4.226,4.696 8.982,8.9 14.163,12.544l0.137,-137.296c-5.18,3.645 -10.02,7.798 -14.246,12.495z"/>
   <polygon id="svg_23" fill="#333E48" points="433.53712463378906,16.470489501953125 433.49012756347656,184.15347290039062 449.46311950683594,184.10348510742188 449.46311950683594,16.470489501953125 "/>
   <circle id="svg_24" fill="#333E48" transform="matrix(1,0,0,1,-1.46221,58.4886) " r="9.29" cy="20.138886" cx="593.741328"/>
   <g id="svg_25" transform="matrix(1,0,0,1,-1.46221,58.4886) ">
    <path id="svg_26" fill="#333E48" d="m563.534328,41.798886c0,-30.695 10.333,-59.043 27.598,-81.79c-5.871,-1.441 -12.104,-2.027 -18.405,-2.027l-19.505,0c-14.245,24.693 -22.402,53.32 -22.402,83.817c0,30.498 8.158,59.125 22.403,83.819l19.504,0c6.301,0 12.433,-0.719 18.336,-2.036c-17.266,-22.748 -27.529,-51.087 -27.529,-81.783z"/>
    <path id="svg_27" fill="#E8E8E8" d="m552.630328,41.798886c0,-31.042 9.717,-59.853 26.255,-83.568c-2.034,-0.148 -4.084,-0.25 -6.157,-0.25l-6.762,0c-15.345,24.283 -24.241,53.03 -24.241,83.817c0,30.789 8.897,59.535 24.242,83.819l6.761,0c2.073,0 4.123,-0.103 6.158,-0.25c-16.539,-23.715 -26.256,-52.526 -26.256,-83.568z"/>
   </g>
   <g id="svg_28" transform="matrix(1,0,0,1,-1.46221,58.4886) ">
    <path id="svg_29" fill="#333E48" d="m474.692328,-5.130114c-22.129,22.129 -22.129,58.008 0,80.138l40.069,-40.07l-40.069,-40.068z"/>
    <path id="svg_30" fill="#D68512" d="m481.642328,1.818886c-8.476,8.476 -13.718,20.185 -13.718,33.119s5.242,24.644 13.719,33.12l33.119,-33.12l-33.12,-33.119z"/>
   </g>
  </g>
  <g id="svg_31" transform="matrix(1,0,0,1,-46.3386,384.414) "/>
  <g id="svg_32" transform="matrix(1,0,0,1,-46.3386,384.414) "/>
  <g id="svg_33" transform="matrix(1,0,0,1,-46.3386,384.414) "/>
  <g id="svg_34" transform="matrix(1,0,0,1,-46.3386,384.414) "/>
  <g id="svg_35" transform="matrix(1,0,0,1,-46.3386,384.414) "/>
  <g id="svg_36" transform="matrix(1,0,0,1,-46.3386,384.414) "/>
  <g id="svg_37" transform="matrix(1,0,0,1,-46.3386,384.414) "/>
  <g id="svg_38" transform="matrix(1,0,0,1,-46.3386,384.414) "/>
  <g id="svg_39" transform="matrix(1,0,0,1,-46.3386,384.414) "/>
  <g id="svg_40" transform="matrix(1,0,0,1,-46.3386,384.414) "/>
  <g id="svg_41" transform="matrix(1,0,0,1,-46.3386,384.414) "/>
  <g id="svg_42" transform="matrix(1,0,0,1,-46.3386,384.414) "/>
  <g id="svg_43" transform="matrix(1,0,0,1,-46.3386,384.414) "/>
  <g id="svg_44" transform="matrix(1,0,0,1,-46.3386,384.414) "/>
  <g id="svg_45" transform="matrix(1,0,0,1,-46.3386,384.414) "/>
  <text fill="black" font-family="Arial" font-size="20px" id="e2_texte" y="285.319977" x="406.343048"/>
  <text fill="#2f353a" font-family="Arial" font-size="20px" font-weight="bold" transform="matrix(8.72889,0,0,8.72889,-1966.14,994.747) " id="svg_49" y="-89.213279" x="278.772155">ORCA</text>
  <text fill="#20a8d8" font-family="Arial" font-size="20px" font-weight="bold" transform="matrix(8.72889,0,0,8.72889,-1966.14,994.747) " id="svg_50" y="-89.366029" x="294.199894">RCA</text>
 </g>
</svg>