<svg xmlns="http://www.w3.org/2000/svg" xmlns:xlink="http://www.w3.org/1999/xlink" version="1.1" id="Layer_1" x="0px" y="0px" viewBox="-242.88021850585938 135.44300842285156 1008.9280395507812 282.2073974609375" style="enable-background:new 0 0 409.877 409.877;" xml:space="preserve" width="382px" height="107px"  preserveAspectRatio="xMidYMid meet"><rect id="svgEditorBackground" x="0" y="0" width="409.87701416015625" height="409.87701416015625" style="fill: none; stroke: none;"/>
<g transform="matrix(1 0 0 1 -234.05 54.4551)">
	<g transform="matrix(1 0 0 1 -2.92443 20.471)">
		<circle style="fill:#333E48;" cx="161.407" cy="266.463" r="50.021"/>
		<circle style="fill:#D68512;" cx="161.407" cy="266.463" r="37.304" transform="matrix(1 0 0 1 1.46221 38.0176)"/>
	</g>
	<g transform="matrix(1 0 0 1 -1.46221 58.4886)">
		<circle style="fill:#333E48;" cx="161.407" cy="150.468" r="50.021"/>
		<circle style="fill:#D68512;" cx="161.407" cy="150.468" r="37.304"/>
	</g>
	<g transform="matrix(1 0 0 1 -1.46221 58.4886)">
		<path style="fill:#333E48;" d="M132.597,242.97c-7.353-7.353-17.51-11.9-28.73-11.9c-22.44,0-40.631,18.19-40.631,40.63v0.003    C28.312,271.703,0,243.391,0,208.465c-0.001-34.923,28.313-63.234,63.235-63.234c0,22.44,18.191,40.631,40.631,40.631    c11.22,0,21.378-4.549,28.73-11.901v69.009H132.597z"/>
		<path style="fill:#D68512;" d="M103.866,185.862c-17.728,0-32.794-11.357-38.344-27.189h-2.288    c-27.499,0-49.792,22.292-49.792,49.792c0,27.499,22.293,49.792,49.792,49.792h2.288c5.55-15.832,20.617-27.188,38.344-27.188    c11.22,0,21.378,4.548,28.73,11.9V173.96C125.244,181.314,115.086,185.862,103.866,185.862z"/>
		<path style="fill:#333E48;" d="M103.866,185.862c-9.791,0-18.768-3.47-25.78-9.24c4.74,9.604,7.414,20.409,7.414,31.843    s-2.675,22.24-7.415,31.844c7.013-5.77,15.99-9.24,25.781-9.24c11.22,0,21.378,4.548,28.73,11.9V173.96    C125.244,181.314,115.086,185.862,103.866,185.862z"/>
	</g>
	<g transform="matrix(1 0 0 1 -1.46221 58.4886)">
		<path style="fill:#333E48;" d="M235.191,201.606v-90.278c0-13.593,11.059-24.652,24.652-24.652    c56.758,0,102.935,46.177,102.935,102.935v11.995L235.191,201.606L235.191,201.606z"/>
		<path style="fill:#D68512;" d="M350.783,189.611c0-50.225-40.715-90.94-90.939-90.94c-6.991,0-12.656,5.666-12.656,12.657v78.283    H350.783z"/>
	</g>
	<g transform="matrix(1 0 0 1 1.46221 38.0176)">
		<path style="fill:#333E48;" d="M235.191,208.271v90.278c0,13.593,11.059,24.652,24.652,24.652    c56.758,0,102.935-46.177,102.935-102.935v-11.995L235.191,208.271L235.191,208.271z"/>
		<path style="fill:#D68512;" d="M350.783,220.266c0,50.225-40.715,90.939-90.939,90.939c-6.991,0-12.656-5.666-12.656-12.657    v-78.283L350.783,220.266L350.783,220.266z" transform="matrix(1 0 0 1 -2.92443 20.471)"/>
	</g>
	<path style="fill:#FF9E16;" d="M326.061,124.649h-152.38099999999997c-46.289,0,-83.818,37.52600000000001,-83.818,83.81700000000001c0,46.292,37.527,83.81900000000002,83.818,83.81900000000002h152.38100000000003c46.29000000000002,0,83.81799999999998,-37.52699999999999,83.81600000000003,-83.81900000000002c0.0019999999999527063,-46.291,-37.52600000000007,-83.81700000000001,-83.81600000000009,-83.81700000000001Z" transform="matrix(1 0 0 1 -1.46221 58.4886)"/>
	<rect x="235.191" y="124.649" style="fill:#333E48;" width="11.996" height="167.758" transform="matrix(1 0 0 1 -1.46221 58.4886)"/>
	<path style="fill:#E8E8E8;" d="M111.417,152.252c-13.362,14.849-21.555,34.665-21.555,56.215c0,21.548,8.139,41.192,21.501,56.042   L111.417,152.252z" transform="matrix(1 0 0 1 -1.46221 58.4886)"/>
	<rect x="203.931" y="124.649" style="fill:#E8E8E8;" width="31.261" height="167.636" transform="matrix(1 0 0 1 -1.46221 58.4886)"/>
	<path style="fill:#333E48;" d="M111.417,152.252l-0.054,112.257c4.226,4.696,8.982,8.9,14.163,12.544l0.137-137.296   C120.483,143.402,115.643,147.555,111.417,152.252z" transform="matrix(1 0 0 1 -1.46221 58.4886)"/>
	<polygon style="fill:#333E48;" points="188.332,124.649 188.285,292.332 204.258,292.282 204.258,124.649  " transform="matrix(1 0 0 1 -1.46221 58.4886)"/>
	<circle style="fill:#333E48;" cx="347.074" cy="186.806" r="9.29" transform="matrix(1 0 0 1 -1.46221 58.4886)"/>
	<g transform="matrix(1 0 0 1 -1.46221 58.4886)">
		<path style="fill:#333E48;" d="M316.867,208.466c0-30.695,10.333-59.043,27.598-81.79c-5.871-1.441-12.104-2.027-18.405-2.027    h-19.505c-14.245,24.693-22.402,53.32-22.402,83.817c0,30.498,8.158,59.125,22.403,83.819h19.504    c6.301,0,12.433-0.719,18.336-2.036C327.13,267.501,316.867,239.162,316.867,208.466z"/>
		<path style="fill:#E8E8E8;" d="M305.963,208.466c0-31.042,9.717-59.853,26.255-83.568c-2.034-0.148-4.084-0.25-6.157-0.25h-6.762    c-15.345,24.283-24.241,53.03-24.241,83.817c0,30.789,8.897,59.535,24.242,83.819h6.761c2.073,0,4.123-0.103,6.158-0.25    C315.68,268.319,305.963,239.508,305.963,208.466z"/>
	</g>
	<g transform="matrix(1 0 0 1 -1.46221 58.4886)">
		<path style="fill:#333E48;" d="M228.025,161.537c-22.129,22.129-22.129,58.008,0,80.138l40.069-40.07L228.025,161.537z"/>
		<path style="fill:#D68512;" d="M234.975,168.486c-8.476,8.476-13.718,20.185-13.718,33.119s5.242,24.644,13.719,33.12    l33.119-33.12L234.975,168.486z"/>
	</g>
</g>
<g transform="matrix(1 0 0 1 -46.3386 384.414)">
</g>
<g transform="matrix(1 0 0 1 -46.3386 384.414)">
</g>
<g transform="matrix(1 0 0 1 -46.3386 384.414)">
</g>
<g transform="matrix(1 0 0 1 -46.3386 384.414)">
</g>
<g transform="matrix(1 0 0 1 -46.3386 384.414)">
</g>
<g transform="matrix(1 0 0 1 -46.3386 384.414)">
</g>
<g transform="matrix(1 0 0 1 -46.3386 384.414)">
</g>
<g transform="matrix(1 0 0 1 -46.3386 384.414)">
</g>
<g transform="matrix(1 0 0 1 -46.3386 384.414)">
</g>
<g transform="matrix(1 0 0 1 -46.3386 384.414)">
</g>
<g transform="matrix(1 0 0 1 -46.3386 384.414)">
</g>
<g transform="matrix(1 0 0 1 -46.3386 384.414)">
</g>
<g transform="matrix(1 0 0 1 -46.3386 384.414)">
</g>
<g transform="matrix(1 0 0 1 -46.3386 384.414)">
</g>
<g transform="matrix(1 0 0 1 -46.3386 384.414)">
</g>
<text style="fill:#FFFFFF;font-family:Arial;font-size:20px;font-weight:bold;" x="252.49917602539062" y="-70.27229309082031" id="e1_texte" transform="matrix(8.72889 0 0 8.72889 -1966.14 994.747)"><tspan x="257.3570861816406" style="fill:#000000;">O</tspan><tspan style="fill:#20A8D8;">PE</tspan><tspan style="fill:#20A8D8;">X</tspan></text><text style="fill:black;font-family:Arial;font-size:20px;" x="406.3430480957031" y="285.3199768066406" id="e2_texte"></text></svg>